<svg width="97" height="97" viewBox="0 0 97 97" fill="none" xmlns="http://www.w3.org/2000/svg">
    <g clip-path="url(#clip0_49_270)">
        <path d="M71.9736 71.7297C84.9828 71.7297 95.5288 82.2757 95.5288 95.2849" stroke="#5A5A5A"
            stroke-width="2" stroke-linecap="square" />
        <path d="M95.0481 95.2849C82.0389 95.2849 71.4929 84.7388 71.4929 71.7297" stroke="#5A5A5A"
            stroke-width="2" stroke-linecap="square" />
        <path d="M71.9736 24.6193C71.9736 11.6101 82.5196 1.06407 95.5288 1.06407" stroke="#5A5A5A"
            stroke-width="2" stroke-linecap="square" />
        <path d="M95.5288 1.54479C95.5288 14.554 84.9828 25.1 71.9736 25.1" stroke="#5A5A5A"
            stroke-width="2" stroke-linecap="square" />
        <path d="M24.8633 71.7297C11.8541 71.7297 1.30809 82.2757 1.30809 95.2849" stroke="#5A5A5A"
            stroke-width="2" stroke-linecap="square" />
        <path d="M1.78881 95.2849C14.798 95.2849 25.344 84.7388 25.344 71.7297" stroke="#5A5A5A"
            stroke-width="2" stroke-linecap="square" />
        <path d="M24.8633 24.6193C24.8633 11.6101 14.3173 1.06407 1.3081 1.06407" stroke="#5A5A5A"
            stroke-width="2" stroke-linecap="square" />
        <path d="M1.3081 1.54479C1.3081 14.554 11.8541 25.1 24.8633 25.1" stroke="#5A5A5A"
            stroke-width="2" stroke-linecap="square" />
        <path d="M34.8215 65.9631L48.4183 52.3663L62.0151 65.9631L48.4183 79.5599L34.8215 65.9631Z"
            stroke="#5A5A5A" stroke-width="2" />
        <path d="M17.0371 48.1765L30.6339 34.5798L44.2306 48.1765L30.6339 61.7733L17.0371 48.1765Z"
            stroke="#5A5A5A" stroke-width="2" />
        <path d="M52.6104 48.1765L66.2071 34.5798L79.8039 48.1765L66.2071 61.7733L52.6104 48.1765Z"
            stroke="#5A5A5A" stroke-width="2" />
        <path d="M34.8215 30.39L48.4183 16.7932L62.0151 30.39L48.4183 43.9867L34.8215 30.39Z"
            stroke="#5A5A5A" stroke-width="2" />
    </g>
    <defs>
        <clipPath id="clip0_49_270">
            <rect width="96.1436" height="96.1436" fill="white"
                transform="translate(0.34668 0.102661)" />
        </clipPath>
    </defs>
</svg>